<svg id="Layer_1" data-name="Layer 1" xmlns="http://www.w3.org/2000/svg" viewBox="0 0 435.94 105.29"><defs><style>.cls-1{fill:#58dbc2;}.cls-2{fill:#4e4e4e;}</style></defs><path class="cls-1" d="M68.24,83.16H36.15a6,6,0,1,0,0,11.9H68.24a6,6,0,0,0,0-11.9Z"/><path class="cls-1" d="M93.59,42.51,65.7,14.59a19.1,19.1,0,0,0-27,0L10.8,42.51a13.23,13.23,0,0,0,9.36,22.58H84.23A13.23,13.23,0,0,0,93.59,42.51ZM84.43,53.07H20a1.1,1.1,0,0,1-.77-1.87L47.32,23a6.9,6.9,0,0,1,9.75,0L85.21,51.2A1.1,1.1,0,0,1,84.43,53.07Z"/><path class="cls-2" d="M164.84,39.65c-7.16,0-13.21,3.3-16.3,8.39h-.83V16a1.61,1.61,0,0,0-1.57-1.63H134.56A1.61,1.61,0,0,0,133,16V93.5a1.61,1.61,0,0,0,1.57,1.64h11.58a1.61,1.61,0,0,0,1.57-1.64V61.81c0-6.77,4.39-11.32,10.93-11.32,5.47,0,9,3.62,9,9.22V93.5a1.61,1.61,0,0,0,1.57,1.64h11.58a1.61,1.61,0,0,0,1.57-1.64V57.39C182.36,46.61,175.48,39.65,164.84,39.65Z"/><path class="cls-2" d="M220.12,39.65c-8.47,0-15.47,2.81-20.24,8.12-4.24,4.72-6.39,11.57-6.39,20.36,0,17.64,10,28.16,26.63,28.16,8.46,0,15.45-2.8,20.23-8.11,4.24-4.7,6.39-11.52,6.39-20.26C246.74,50.22,236.78,39.65,220.12,39.65Zm-.1,46c-7.42,0-11.85-6.59-11.85-17.64,0-11.27,4.39-17.74,12-17.74,7.42,0,11.85,6.63,11.85,17.74S227.67,85.66,220,85.66Z"/><path class="cls-2" d="M321.49,39.65c-8.76,0-13.95,4.24-17,9.51l-.85-1.54c-2.82-5.14-8.08-8-14.81-8-7.32,0-13.17,3.26-16.53,8.72l-.76,0-.24-6a1.6,1.6,0,0,0-1.57-1.56H259.3a1.61,1.61,0,0,0-1.57,1.63V93.5a1.61,1.61,0,0,0,1.57,1.64h11.58a1.61,1.61,0,0,0,1.57-1.64V61.18c0-6.39,4.15-10.69,10.32-10.69,5.24,0,8.5,3.29,8.5,8.58V93.5a1.61,1.61,0,0,0,1.57,1.64h11.57A1.61,1.61,0,0,0,306,93.5V61.18c0-6.39,4.11-10.69,10.22-10.69,5.31,0,8.6,3.29,8.6,8.58V93.5a1.61,1.61,0,0,0,1.57,1.64H338a1.61,1.61,0,0,0,1.57-1.64V57.07C339.52,46.49,332.44,39.65,321.49,39.65Z"/><path class="cls-2" d="M365.15,40.81H353.57A1.61,1.61,0,0,0,352,42.44V93.5a1.61,1.61,0,0,0,1.57,1.64h11.58a1.61,1.61,0,0,0,1.57-1.64V42.44A1.61,1.61,0,0,0,365.15,40.81Z"/><path class="cls-2" d="M365.15,13.62H353.57A1.61,1.61,0,0,0,352,15.26v11a1.61,1.61,0,0,0,1.57,1.63h11.58a1.61,1.61,0,0,0,1.57-1.63v-11A1.61,1.61,0,0,0,365.15,13.62Z"/><path class="cls-2" d="M429.32,66.34c0-7.79-2.16-14.38-6.26-19-4.4-5-11-7.65-19.08-7.65-16.38,0-26.56,10.91-26.56,28.48,0,8.48,2.41,15.53,7,20.38,4.87,5.16,11.94,7.78,21,7.78,8.66,0,15.3-2.44,20.31-7.46a1.66,1.66,0,0,0,.5-1.26,1.57,1.57,0,0,0-.54-1.18L419.52,81a1.51,1.51,0,0,0-2.11.06,15.28,15.28,0,0,1-11.5,5c-7.49,0-11.89-3.54-13.41-10.79l-.09-.35,34.66-4.41s1.87-.06,2.19-1.59a1.28,1.28,0,0,0,.06-.34ZM392,64.05l.12-1.6C393,54.28,397,50,403.88,50c5.47,0,8.92,2.63,10.44,8a8.92,8.92,0,0,1,.55,2.21c.11.84.19,1.62.27,2.37l-23.21,2.88c0-.45.06-.9.09-1.37Z"/></svg>